# xmcd CD database file generated by OrangeCD 6.1
#
# Track frame offsets:
#	150
#	12619
#	31255
#	33076
#	47609
#	53625
#	63060
#	79242
#	84095
#	98637
#	105508
#	119944
#	125283
#	139264
#	142137
#	156882
#	162196
#	183966
#	189270
#	203772
#	208842
#	222267
#	227206
#	246716
#	248114
#	262129
#	267790
#
# Disc length: 3753 seconds
#
# Revision: 0
# Processed by: cddbd v1.5.2PL0 Copyright (c) Steve Scherf et al.
# Submitted via: OrangeCD 6.1
#
DISCID=820ea71b
DTITLE=William Elliott Whitmore - Triple Rock, Minneapolis MN 10 Sept 07
DYEAR=1900
DGENRE=
TTITLE0=Country Blues aka Hustling Gamblers
TTITLE1=Diggin' My Grave
TTITLE2=
TTITLE3=Dry
TTITLE4=
TTITLE5=Take It On the Chin
TTITLE6=The Day the End Finally Came
TTITLE7=
TTITLE8=The Chariot
TTITLE9=
TTITLE10=Red Buds
TTITLE11=
TTITLE12=Johnny Law
TTITLE13=
TTITLE14=Midnight
TTITLE15=
TTITLE16=Porchlight
TTITLE17=
TTITLE18=South Lee Brew
TTITLE19=
TTITLE20=Lift My Jug (Song for Hub Cale)
TTITLE21=
TTITLE22=One Man's Shame
TTITLE23=
TTITLE24=Lee County Flood
TTITLE25=
TTITLE26=Our Paths Will Cross Again
EXTD=
EXTT0=
EXTT1=
EXTT2=
EXTT3=
EXTT4=
EXTT5=
EXTT6=
EXTT7=
EXTT8=
EXTT9=
EXTT10=
EXTT11=
EXTT12=
EXTT13=
EXTT14=
EXTT15=
EXTT16=
EXTT17=
EXTT18=
EXTT19=
EXTT20=
EXTT21=
EXTT22=
EXTT23=
EXTT24=
EXTT25=
EXTT26=
PLAYORDER=
